<svg width="5277" height="1112" viewBox="0 0 5277 1112" fill="none" xmlns="http://www.w3.org/2000/svg"><g clip-path="url(#clip0)"><path class="text_desc" d="M108.3 1070.8C108.3 1087.8 102.3 1092 86.3 1092H30.7C14.7 1092 8.69995 1087.8 8.69995 1070.8V968.8C8.69995 951.8 14.7 947.6 30.7 947.6H86.3C102.3 947.6 108.3 951.8 108.3 968.8V985.2C108.3 988.8 106.5 990.6 102.9 990.6H93.3C89.7 990.6 87.9 988.8 87.9 985.2V974.2C87.9 968.4 86.5 967.2 80.7 967.2H36.5C30.7 967.2 29.3 968.4 29.3 974.2V1065.6C29.3 1071.4 30.7 1072.6 36.5 1072.6H80.7C87.1 1072.6 87.9 1071.4 87.9 1065.6V1054.4C87.9 1050.8 89.7 1049 93.3 1049H102.9C106.5 1049 108.3 1050.8 108.3 1054.4V1070.8V1070.8Z" fill="#ffffff"/><path class="text_desc" d="M258.7 1086.6C258.7 1090.2 256.9 1092 253.3 1092H243.5C239.9 1092 238.1 1090.2 238.1 1086.6V953C238.1 949.4 239.9 947.6 243.5 947.6H253.3C256.9 947.6 258.7 949.4 258.7 953V1086.6Z" fill="#ffffff"/><path class="text_desc" d="M440.9 967.2V1086.6C440.9 1090.2 439.1 1092 435.5 1092H425.7C422.1 1092 420.3 1090.2 420.3 1086.6V967.2H386.5C382.9 967.2 381.1 965.4 381.1 961.8V953C381.1 949.4 382.9 947.6 386.5 947.6H474.5C478.1 947.6 479.9 949.4 479.9 953V961.8C479.9 965.4 478.1 967.2 474.5 967.2H440.9V967.2Z" fill="#ffffff"/><path class="text_desc" d="M661.3 1032.2V1086.6C661.3 1090.2 659.5 1092 655.9 1092H646.1C642.5 1092 640.7 1090.2 640.7 1086.6V1032.2H619.7C603.7 1032.2 597.7 1028 597.7 1011V953C597.7 949.4 599.5 947.6 603.1 947.6H612.9C616.5 947.6 618.3 949.4 618.3 953V1005.8C618.3 1011.6 619.7 1012.8 625.5 1012.8H675.7C682.1 1012.8 682.9 1011.6 682.9 1005.8V953C682.9 949.4 684.7 947.6 688.3 947.6H697.9C701.5 947.6 703.3 949.4 703.3 953V1011C703.3 1028 697.3 1032.2 681.3 1032.2H661.3Z" fill="#ffffff"/><path class="text_desc" d="M995.9 1036.6V1086.6C995.9 1090.2 994.1 1092 990.5 1092H980.7C977.1 1092 975.3 1090.2 975.3 1086.6V953C975.3 949.4 977.1 947.6 980.7 947.6H1050.9C1066.9 947.6 1072.9 951.8 1072.9 968.8V1015.4C1072.9 1032.4 1066.9 1036.6 1050.9 1036.6H995.9ZM1045.3 1017.2C1051.7 1017.2 1052.5 1016 1052.5 1010.2V974.2C1052.5 968.4 1051.1 967.2 1045.3 967.2H995.9V1017.2H1045.3Z" fill="#ffffff"/><path class="text_desc" d="M1291.5 1086.6C1291.5 1090.2 1289.7 1092 1286.1 1092H1206.9C1203.3 1092 1201.5 1090.2 1201.5 1086.6V953C1201.5 949.4 1203.3 947.6 1206.9 947.6H1286.1C1289.7 947.6 1291.5 949.4 1291.5 953V961.8C1291.5 965.4 1289.7 967.2 1286.1 967.2H1222.1V1010H1273.1C1276.7 1010 1278.5 1011.8 1278.5 1015.4V1024C1278.5 1027.6 1276.7 1029.4 1273.1 1029.4H1222.1V1072.6H1286.1C1289.7 1072.6 1291.5 1074.4 1291.5 1078V1086.6Z" fill="#ffffff"/><path class="text_desc" d="M1524.1 1070.8C1524.1 1087.8 1518.1 1092 1502.1 1092H1440.5C1424.5 1092 1418.5 1087.8 1418.5 1070.8V968.8C1418.5 951.8 1424.5 947.6 1440.5 947.6H1502.1C1518.1 947.6 1524.1 951.8 1524.1 968.8V1070.8ZM1496.5 1072.6C1502.9 1072.6 1503.7 1071.4 1503.7 1065.6V974.2C1503.7 968.4 1502.3 967.2 1496.5 967.2H1446.3C1440.5 967.2 1439.1 968.4 1439.1 974.2V1065.6C1439.1 1071.4 1440.5 1072.6 1446.3 1072.6H1496.5Z" fill="#ffffff"/><path class="text_desc" d="M1677.9 1036.6V1086.6C1677.9 1090.2 1676.1 1092 1672.5 1092H1662.7C1659.1 1092 1657.3 1090.2 1657.3 1086.6V953C1657.3 949.4 1659.1 947.6 1662.7 947.6H1732.9C1748.9 947.6 1754.9 951.8 1754.9 968.8V1015.4C1754.9 1032.4 1748.9 1036.6 1732.9 1036.6H1677.9ZM1727.3 1017.2C1733.7 1017.2 1734.5 1016 1734.5 1010.2V974.2C1734.5 968.4 1733.1 967.2 1727.3 967.2H1677.9V1017.2H1727.3Z" fill="#ffffff"/><path class="text_desc" d="M1969.5 1086.6C1969.5 1090.2 1967.7 1092 1964.1 1092H1888.9C1885.3 1092 1883.5 1090.2 1883.5 1086.6V953C1883.5 949.4 1885.3 947.6 1888.9 947.6H1898.7C1902.3 947.6 1904.1 949.4 1904.1 953V1072.6H1964.1C1967.7 1072.6 1969.5 1074.4 1969.5 1078V1086.6V1086.6Z" fill="#ffffff"/><path class="text_desc" d="M2181.7 1086.6C2181.7 1090.2 2179.9 1092 2176.3 1092H2097.1C2093.5 1092 2091.7 1090.2 2091.7 1086.6V953C2091.7 949.4 2093.5 947.6 2097.1 947.6H2176.3C2179.9 947.6 2181.7 949.4 2181.7 953V961.8C2181.7 965.4 2179.9 967.2 2176.3 967.2H2112.3V1010H2163.3C2166.9 1010 2168.7 1011.8 2168.7 1015.4V1024C2168.7 1027.6 2166.9 1029.4 2163.3 1029.4H2112.3V1072.6H2176.3C2179.9 1072.6 2181.7 1074.4 2181.7 1078V1086.6Z" fill="#ffffff"/><path class="text_desc" d="M2324.1 1106.2C2323.9 1109.8 2322.1 1111.6 2318.5 1111.6H2314.5C2310.9 1111.6 2309.1 1109.8 2308.9 1106.2L2306.9 1076.2C2306.7 1072.6 2308.5 1070.8 2312.1 1070.8H2321.7C2325.3 1070.8 2327.1 1072.6 2326.9 1076.2L2324.1 1106.2Z" fill="#ffffff"/><path class="text_desc" d="M2704.3 1086.6C2704.3 1090.2 2702.5 1092 2698.9 1092H2684.3C2680.7 1092 2678.1 1090.4 2676.3 1087L2624.1 983.4V1086.4C2624.1 1090 2622.3 1091.8 2618.7 1091.8H2608.9C2605.3 1091.8 2603.5 1090 2603.5 1086.4V952.8C2603.5 949.2 2605.3 947.4 2608.9 947.4H2622.9C2626.7 947.4 2629.3 949 2630.9 952.4L2683.7 1057.2V953C2683.7 949.4 2685.5 947.6 2689.1 947.6H2698.9C2702.5 947.6 2704.3 949.4 2704.3 953V1086.6V1086.6Z" fill="#ffffff"/><path class="text_desc" d="M2927.7 1086.6C2927.7 1090.2 2925.9 1092 2922.3 1092H2843.1C2839.5 1092 2837.7 1090.2 2837.7 1086.6V953C2837.7 949.4 2839.5 947.6 2843.1 947.6H2922.3C2925.9 947.6 2927.7 949.4 2927.7 953V961.8C2927.7 965.4 2925.9 967.2 2922.3 967.2H2858.3V1010H2909.3C2912.9 1010 2914.7 1011.8 2914.7 1015.4V1024C2914.7 1027.6 2912.9 1029.4 2909.3 1029.4H2858.3V1072.6H2922.3C2925.9 1072.6 2927.7 1074.4 2927.7 1078V1086.6Z" fill="#ffffff"/><path class="text_desc" d="M3160.5 1070.8C3160.5 1087.8 3154.5 1092 3138.5 1092H3076.9C3060.9 1092 3054.9 1087.8 3054.9 1070.8V953C3054.9 949.4 3056.7 947.6 3060.3 947.6H3070.1C3073.7 947.6 3075.5 949.4 3075.5 953V1065.6C3075.5 1071.4 3076.9 1072.6 3082.7 1072.6H3132.9C3139.3 1072.6 3140.1 1071.4 3140.1 1065.6V953C3140.1 949.4 3141.9 947.6 3145.5 947.6H3155.1C3158.7 947.6 3160.5 949.4 3160.5 953V1070.8V1070.8Z" fill="#ffffff"/><path class="text_desc" d="M3358.3 1036.6L3388.3 1087.4C3390.1 1090.4 3389.1 1092 3385.5 1092H3374.9C3371.3 1092 3368.5 1090.4 3366.7 1087.4L3336.9 1036.6H3314.5V1086.6C3314.5 1090.2 3312.7 1092 3309.1 1092H3299.3C3295.7 1092 3293.9 1090.2 3293.9 1086.6V953C3293.9 949.4 3295.7 947.6 3299.3 947.6H3369.5C3385.5 947.6 3391.5 951.8 3391.5 968.8V1015.4C3391.5 1032.4 3385.5 1036.6 3369.5 1036.6H3358.3ZM3364.1 1017.2C3370.5 1017.2 3371.3 1016 3371.3 1010.2V974.2C3371.3 968.4 3369.9 967.2 3364.1 967.2H3314.7V1017.2H3364.1Z" fill="#ffffff"/><path class="text_desc" d="M3627.1 1070.8C3627.1 1087.8 3621.1 1092 3605.1 1092H3543.5C3527.5 1092 3521.5 1087.8 3521.5 1070.8V968.8C3521.5 951.8 3527.5 947.6 3543.5 947.6H3605.1C3621.1 947.6 3627.1 951.8 3627.1 968.8V1070.8ZM3599.5 1072.6C3605.9 1072.6 3606.7 1071.4 3606.7 1065.6V974.2C3606.7 968.4 3605.3 967.2 3599.5 967.2H3549.3C3543.5 967.2 3542.1 968.4 3542.1 974.2V1065.6C3542.1 1071.4 3543.5 1072.6 3549.3 1072.6H3599.5Z" fill="#ffffff"/><path class="text_desc" d="M3926.5 1036.6V1086.6C3926.5 1090.2 3924.7 1092 3921.1 1092H3911.3C3907.7 1092 3905.9 1090.2 3905.9 1086.6V953C3905.9 949.4 3907.7 947.6 3911.3 947.6H3981.5C3997.5 947.6 4003.5 951.8 4003.5 968.8V1015.4C4003.5 1032.4 3997.5 1036.6 3981.5 1036.6H3926.5ZM3975.9 1017.2C3982.3 1017.2 3983.1 1016 3983.1 1010.2V974.2C3983.1 968.4 3981.7 967.2 3975.9 967.2H3926.5V1017.2H3975.9Z" fill="#ffffff"/><path class="text_desc" d="M4222.1 1086.6C4222.1 1090.2 4220.3 1092 4216.7 1092H4137.5C4133.9 1092 4132.1 1090.2 4132.1 1086.6V953C4132.1 949.4 4133.9 947.6 4137.5 947.6H4216.7C4220.3 947.6 4222.1 949.4 4222.1 953V961.8C4222.1 965.4 4220.3 967.2 4216.7 967.2H4152.7V1010H4203.7C4207.3 1010 4209.1 1011.8 4209.1 1015.4V1024C4209.1 1027.6 4207.3 1029.4 4203.7 1029.4H4152.7V1072.6H4216.7C4220.3 1072.6 4222.1 1074.4 4222.1 1078V1086.6V1086.6Z" fill="#ffffff"/><path class="text_desc" d="M4454.7 1070.8C4454.7 1087.8 4448.7 1092 4432.7 1092H4371.1C4355.1 1092 4349.1 1087.8 4349.1 1070.8V968.8C4349.1 951.8 4355.1 947.6 4371.1 947.6H4432.7C4448.7 947.6 4454.7 951.8 4454.7 968.8V1070.8ZM4427.1 1072.6C4433.5 1072.6 4434.3 1071.4 4434.3 1065.6V974.2C4434.3 968.4 4432.9 967.2 4427.1 967.2H4376.9C4371.1 967.2 4369.7 968.4 4369.7 974.2V1065.6C4369.7 1071.4 4371.1 1072.6 4376.9 1072.6H4427.1Z" fill="#ffffff"/><path class="text_desc" d="M4608.5 1036.6V1086.6C4608.5 1090.2 4606.7 1092 4603.1 1092H4593.3C4589.7 1092 4587.9 1090.2 4587.9 1086.6V953C4587.9 949.4 4589.7 947.6 4593.3 947.6H4663.5C4679.5 947.6 4685.5 951.8 4685.5 968.8V1015.4C4685.5 1032.4 4679.5 1036.6 4663.5 1036.6H4608.5ZM4657.9 1017.2C4664.3 1017.2 4665.1 1016 4665.1 1010.2V974.2C4665.1 968.4 4663.7 967.2 4657.9 967.2H4608.5V1017.2H4657.9Z" fill="#ffffff"/><path class="text_desc" d="M4900.1 1086.6C4900.1 1090.2 4898.3 1092 4894.7 1092H4819.5C4815.9 1092 4814.1 1090.2 4814.1 1086.6V953C4814.1 949.4 4815.9 947.6 4819.5 947.6H4829.3C4832.9 947.6 4834.7 949.4 4834.7 953V1072.6H4894.7C4898.3 1072.6 4900.1 1074.4 4900.1 1078V1086.6V1086.6Z" fill="#ffffff"/><path class="text_desc" d="M5112.3 1086.6C5112.3 1090.2 5110.5 1092 5106.9 1092H5027.7C5024.1 1092 5022.3 1090.2 5022.3 1086.6V953C5022.3 949.4 5024.1 947.6 5027.7 947.6H5106.9C5110.5 947.6 5112.3 949.4 5112.3 953V961.8C5112.3 965.4 5110.5 967.2 5106.9 967.2H5042.9V1010H5093.9C5097.5 1010 5099.3 1011.8 5099.3 1015.4V1024C5099.3 1027.6 5097.5 1029.4 5093.9 1029.4H5042.9V1072.6H5106.9C5110.5 1072.6 5112.3 1074.4 5112.3 1078V1086.6Z" fill="#ffffff"/><path class="text_desc" d="M5261.3 1051.4C5261.3 1055 5259.5 1056.8 5255.9 1056.8H5246.1C5242.5 1056.8 5240.7 1055 5240.7 1051.4V953C5240.7 949.4 5242.5 947.6 5246.1 947.6H5255.9C5259.5 947.6 5261.3 949.4 5261.3 953V1051.4ZM5261.3 1086.6C5261.3 1090.2 5259.5 1092 5255.9 1092H5246.1C5242.5 1092 5240.7 1090.2 5240.7 1086.6V1077C5240.7 1073.4 5242.5 1071.6 5246.1 1071.6H5255.9C5259.5 1071.6 5261.3 1073.4 5261.3 1077V1086.6Z" fill="#ffffff"/><path class="text_neuro" d="M19.7 222H107.9C122.3 222 146.7 242.5 181.2 283.4C243.7 350.7 296.1 405.6 338.6 448.1C342.1 451 345.6 452.5 349.1 452.5C356.1 452.5 359.6 447.1 359.6 436.2V296.8C359.6 265.6 368 245.1 384.9 235.4C403.1 226.5 419.6 222 434.4 222H459.7C471.7 222 477.7 229.5 477.7 244.4V621.5C477.7 632.6 473.2 638.1 464.3 638.1H363.9C353.6 638.1 338.2 625.6 317.6 600.6C299.2 583.3 259.2 540.9 197.7 473.4C157.7 432.5 136.3 412 133.4 412H128.7C123.8 414.5 121.4 418.5 121.4 423.9V554.3C120.2 599.7 114.1 624.8 102.9 629.5C91.7 634.3 72.9 637.1 46.3 638.1H13.4C5.40002 638.1 1.5 634.1 1.5 626.2V511C1.5 473.9 1 446 0 427.2C1 408.2 1.5 380.3 1.5 343.4V235.4C1.6 226.4 7.59995 222 19.7 222Z" fill="#51B792"/><path class="text_neuro" d="M650.3 222H1063.2C1074.1 222 1079.5 227.9 1079.5 239.8C1079.5 281.3 1060.7 307.6 1023 318.7H601.1C592.2 318.7 587.7 313.3 587.7 302.4V299.5C587.7 263 603 238.2 633.7 225C637.6 223 643.1 222 650.3 222ZM672.4 385.5H971.3C982.2 385.5 987.6 390 987.6 398.9V404.7C987.6 431.7 971.7 452 939.9 465.8C936.2 466.8 932.3 467.3 928.3 467.3H729C715.2 467.3 708.3 474.2 708.3 488V517.7C708.3 530.7 713.7 537.2 724.6 537.2H992C1039.3 537.2 1068 557 1078.1 596.6C1078.1 598.9 1078.6 606.4 1079.6 619C1079.6 631.8 1072.2 638.2 1057.5 638.2H683C645.6 638.2 622.8 632.8 614.6 621.9C596.7 607.5 587.8 586.7 587.8 559.3V459.8C587.8 426 604.2 402.3 637 388.5C649.5 386.5 661.3 385.5 672.4 385.5Z" fill="#51B792"/><path class="text_neuro" d="M1214.8 221.1H1243C1277.1 221.1 1299.9 235.9 1311.4 265.6C1315.3 277 1317.2 286 1317.2 292.4V512.1C1317.2 529.8 1323.6 538.6 1336.4 538.6H1570.9C1587.8 538.6 1596.2 529.8 1596.2 512.1V279C1596.2 254 1614 235.2 1649.5 222.5C1656.1 221.5 1662.6 221 1669 221H1694C1708 221 1715 226.4 1715 237.3V563.8C1715 599.1 1695.7 623.4 1657.1 636.5C1649.5 637.5 1641.1 638 1631.8 638H1280.3C1244.6 638 1221.3 626.2 1210.5 602.5C1201.6 593.8 1197.1 576.9 1197.1 551.9V243.2C1197.1 228.5 1203 221.1 1214.8 221.1Z" fill="#51B792"/><path class="text_neuro" d="M1905.1 221.1H2269.7C2305.6 221.1 2329.1 236.6 2340.1 267.7V342.8C2340.1 402.9 2335.6 436.9 2326.7 444.6C2318.7 460.7 2299.7 468.8 2269.7 468.8C2261.6 471.9 2257.5 476.4 2257.5 482.2C2289.3 547 2313.9 593.9 2331.1 623L2332.6 630.6C2330.7 635.3 2328.7 637.8 2326.8 638.2H2223.2C2212.9 638.2 2198.4 618.2 2179.6 578.3C2146.2 515.6 2126.2 480.6 2119.7 473.2C2114.7 470.3 2109.7 468.8 2104.9 468.8H1974.2C1962.2 468.8 1956.2 480.2 1956.2 503.1V626.2C1956.2 634.2 1952.2 638.1 1944.3 638.1H1840.5C1831.6 638.1 1827.1 632.6 1827.1 621.5V458C1827.1 427.2 1840.1 405.7 1866.1 393.7C1877.2 387.7 1889.7 384.7 1903.6 384.7H1956C2013.6 384.7 2095.7 384.2 2202.2 383.2C2209.8 383.2 2214.2 377.2 2215.6 365.2V338.1C2215.6 325.1 2207.1 318.6 2190 318.6H1843.7C1832.6 318.6 1827.1 314.1 1827.1 305.2V300.5C1827.1 268.7 1838.6 245.7 1861.7 231.5C1879 224.6 1893.5 221.1 1905.1 221.1Z" fill="#51B792"/><path class="text_city" d="M3398 222H3794.9C3805.8 222 3811.2 226 3811.2 233.9V253.1C3811.2 281.4 3794.8 302.8 3762 317.1C3760.4 318.1 3758 318.6 3754.7 318.6H3354.9C3345 318.6 3340.1 314.6 3340.1 306.7V290.4C3340.1 260.9 3350 241.1 3369.8 231C3379.9 225 3389.3 222 3398 222ZM3414.3 396H3441.1C3452 396 3457.4 401.9 3457.4 413.8V520.9C3459.1 531.8 3464.7 537.2 3474 537.2H3725.1C3774.2 537.2 3802.9 558.4 3811.2 600.9V624.8C3811.2 633.7 3803.7 638.2 3788.8 638.2H3421.9C3382.9 638.2 3357.6 626.3 3345.9 602.4C3342 591.9 3340.1 581.5 3340.1 571.3V468.9C3340.1 420.3 3364.8 396 3414.3 396Z" fill="#F42E56"/><path class="text_city" d="M3941.3 221.1H4027.7C4038.6 221.1 4044 225.1 4044 233V624.7C4044 633.6 4036.5 638.1 4021.6 638.1H3948.6C3932.7 638.1 3924.7 633.2 3924.7 623.3V234.5C3924.7 225.6 3930.2 221.1 3941.3 221.1Z" fill="#F42E56"/><path class="text_city" d="M4236.4 221.1H4635.6C4643.4 221.1 4648.8 224.1 4651.9 230.1V252.2C4651.9 273.3 4641.5 291.7 4620.8 307.2C4603.9 316.1 4590.5 320.6 4580.6 320.6H4493C4476.1 320.6 4467.7 327.5 4467.7 341.3V620.4C4467.7 632.2 4460.3 638.2 4445.6 638.2H4371.4C4355.5 638.2 4347.5 633.3 4347.5 623.4V340C4347.5 327.2 4338.1 320.8 4319.3 320.8H4175.5C4167.5 320.8 4163.6 316.3 4163.6 307.4V280.6C4163.6 254.8 4181.4 235.5 4217.1 222.7C4223.6 221.6 4230 221.1 4236.4 221.1Z" fill="#F42E56"/><path class="text_city" d="M4729.6 221.1H4838.1C4866 221.1 4889.2 233.4 4907.6 258.1C4958.2 308.5 4984.4 333.8 4986.2 333.8C4990.3 335.9 4993.3 337 4995.2 337C5004.3 337 5021.1 322.6 5045.5 293.9C5047.1 293.9 5059.9 281.5 5084.2 256.7C5102.4 233 5125.2 221.2 5152.6 221.2H5265.2C5272.6 221.2 5276.5 222.7 5277.1 225.6C5277.1 231.2 5258.8 251 5222.1 285C5112.3 394.6 5057.4 451 5057.4 454.1L5055.9 468.9V612.9C5055.9 629.8 5050.5 638.2 5039.6 638.2H4961C4944.1 638.2 4935.7 633.7 4935.7 624.8V483.7C4935.7 456.7 4925.8 436.9 4906 424.3C4906 422.4 4900.1 416.4 4888.2 406.5C4888.2 404.9 4877.3 394.1 4855.6 373.9C4774.1 291.8 4726.6 243.3 4713 228.4V225.5C4713.3 222.6 4718.7 221.1 4729.6 221.1Z" fill="#F42E56"/><path class="round" d="M2721.5 384.3L2714.3 173.3C2716.2 172.8 2717.9 172.1 2719.6 171.1L2771.5 226.6C2769.1 230.1 2767.6 234.4 2767.6 239.1C2767.6 251.3 2777.4 261.1 2789.6 261.1C2793.7 261.1 2797.5 260 2800.8 258L2872 334.2C2868 339.4 2865.5 346 2865.5 353.1C2865.5 354.9 2865.7 356.7 2866 358.4L2744.8 400.4C2740.1 391.7 2731.5 385.5 2721.5 384.3ZM2921.6 334.8L2987.1 302.1C2986.7 300.5 2986.5 298.8 2986.5 297C2986.5 290.5 2989.4 284.6 2993.9 280.6L2946.6 193.4C2941.9 195.1 2936.8 196.1 2931.5 196.1C2930.8 196.1 2930.1 196.1 2929.3 196L2906.7 323.8C2912.8 325.9 2917.9 329.8 2921.6 334.8ZM2927.5 353C2927.5 362.4 2923.3 370.9 2916.6 376.6L2981.9 484.3C2984.6 483.2 2987.6 482.5 2990.6 482.2L3002 318.1C2997.9 316.8 2994.2 314.4 2991.5 311.1L2926 343.8C2927 346.7 2927.5 349.8 2927.5 353ZM2811.5 239C2811.5 243.4 2810.2 247.5 2807.9 251L2879.2 327.2C2884.1 323.9 2890.1 322 2896.4 322C2896.5 322 2896.7 322 2896.8 322L2919.4 194.3C2911 191.9 2903.5 187.1 2898 180.6L2810.4 232.4C2811.1 234.5 2811.5 236.7 2811.5 239ZM2666.3 539.2C2673.9 525.9 2688.2 517 2704.5 517C2714.2 517 2723.2 520.2 2730.5 525.5L2872.1 372.1C2871 370.7 2870.1 369.3 2869.2 367.8L2748 409.8C2748.3 411.5 2748.5 413.3 2748.5 415.1C2748.5 432.2 2734.6 446.1 2717.5 446.1C2706.5 446.1 2696.9 440.4 2691.4 431.8L2562.2 487.3C2562.4 488.6 2562.5 489.8 2562.5 491.2C2562.5 492.5 2562.4 493.8 2562.2 495L2666.3 539.2ZM2993.5 544C2976.4 544 2962.5 530.1 2962.5 513C2962.5 503.6 2966.7 495.1 2973.4 489.4L2908.1 381.7C2904.5 383.1 2900.6 383.9 2896.5 383.9C2896 383.9 2895.5 383.9 2895 383.9L2856.8 563C2863.9 566.4 2869 573.4 2869.4 581.7L3013.3 607.3C3016 598.1 3021.7 590.2 3029.2 584.6L3004.5 542C3001.1 543.3 2997.4 544 2993.5 544ZM2847.1 561L2885.3 381.9C2883.2 381.1 2881.3 380.1 2879.5 378.9L2737.9 532.3C2744.6 540 2748.6 550 2748.6 561C2748.6 561.6 2748.6 562.1 2748.6 562.7L2827.2 574.8C2830.3 566.8 2838 561.2 2847.1 561ZM3002.7 275.8C3004.6 275.3 3006.5 275 3008.5 275C3020.7 275 3030.5 284.8 3030.5 297C3030.5 297.8 3030.5 298.6 3030.4 299.4L3089.7 320.4C3093.4 314.1 3099.2 309.2 3106.2 306.7C3079.6 245 3032.9 194.1 2974.3 162.2C2971.7 173.3 2964.8 182.7 2955.5 188.8L3002.7 275.8ZM2721.3 601.7C2716.1 603.8 2710.5 605 2704.5 605C2680.2 605 2660.5 585.3 2660.5 561C2660.5 556.6 2661.1 552.4 2662.3 548.4L2558.2 504C2555.1 508.2 2550.7 511.2 2545.5 512.4C2573.7 604.7 2645.4 678.1 2736.7 708.6C2737.7 698.9 2743.2 690.6 2751.1 685.7L2721.3 601.7ZM3011.5 620C3011.5 619.1 3011.5 618.2 3011.6 617.3L2867.7 591.7C2864.3 599.5 2856.5 605 2847.5 605C2835.9 605 2826.4 596 2825.6 584.7L2747 572.6C2744.3 582.5 2738.3 590.9 2730.2 596.8L2760.4 681.9C2762.7 681.4 2765.1 681.1 2767.6 681.1C2784.7 681.1 2798.6 695 2798.6 712.1C2798.6 715.6 2798 719 2796.9 722.1C2808.3 723.4 2819.8 724.1 2831.6 724.1C2905.7 724.1 2973.5 697.1 3025.8 652.4C3017 644.3 3011.5 632.8 3011.5 620ZM3124.6 365.9C3122 366.6 3119.3 367 3116.5 367C3112.1 367 3107.9 366.1 3104.1 364.4L3015.2 490.8C3020.9 496.4 3024.5 504.3 3024.5 512.9C3024.5 522.6 3020.1 531.2 3013.2 536.9L3037.9 579.6C3043.3 577.2 3049.2 575.9 3055.5 575.9C3066.1 575.9 3075.9 579.7 3083.5 585.9C3113.3 539.4 3130.5 484.2 3130.5 424.9C3130.5 404.8 3128.5 385 3124.6 365.9ZM2558.2 478L2687.4 422.5C2686.8 420.1 2686.5 417.6 2686.5 415C2686.5 408.4 2688.6 402.3 2692.1 397.3L2604.4 312.1C2596.8 318.3 2587.1 322.1 2576.5 322.1C2568 322.1 2560 319.7 2553.2 315.4C2539.8 349.4 2532.5 386.3 2532.5 425.1C2532.5 440.2 2533.6 455.1 2535.8 469.6C2537.3 469.3 2538.9 469.1 2540.5 469.1C2547.8 469 2554.2 472.5 2558.2 478ZM2726.8 164.2L2778.8 219.8C2782 218 2785.6 217 2789.5 217C2795.7 217 2801.4 219.6 2805.4 223.8L2892.5 172.3C2889.3 166.2 2887.5 159.3 2887.5 152C2887.5 144.9 2889.2 138.1 2892.2 132.2C2872.6 128.2 2852.3 126 2831.5 126C2795.5 126 2761 132.4 2729 144C2730 146.5 2730.5 149.2 2730.5 152C2730.5 156.5 2729.1 160.7 2726.8 164.2ZM3085.5 336C3085.5 333.9 3085.7 331.8 3086.1 329.8L3027 308.8C3023.7 314 3018.3 317.6 3012 318.6L3000.6 482.7C3002.8 483.2 3005 484 3007 485L3095.7 358.9C3089.4 353.3 3085.5 345.1 3085.5 336ZM2620.5 278C2620.5 288.1 2617.1 297.4 2611.3 304.9L2699 390.1C2702.6 387.4 2706.8 385.5 2711.4 384.6L2704.2 173.6C2697.5 172.3 2692 168 2688.9 162.1C2653.4 181.4 2622.2 207.7 2597.2 239.2C2611.1 246.6 2620.5 261.2 2620.5 278Z" fill="url(#paint0_linear)"/></g><defs><linearGradient id="paint0_linear" x1="2532.5" y1="425" x2="3130.5" y2="425" gradientUnits="userSpaceOnUse"><stop class="round_start" stop-color="#49B695"/><stop class="round_center" offset="0.5" stop-color="#4F8BC9"/><stop class="round_end" offset="1" stop-color="#EF3059"/></linearGradient><clipPath id="clip0"><rect width="5277" height="1112" fill="white"/></clipPath><style>:root { --color_neuro: #51B792; --color_2: #4F8BC9; --color_city: #F42E56; --color_desc: #FFFFFF; } .text_neuro { fill: var(--color_neuro); } .text_city { fill: var(--color_city); } .text_desc { fill: var(--color_desc); } .round_start { stop-color: var(--color_neuro); } .round_center { stop-color: var(--color_2); } .round_end { stop-color: var(--color_city); } .white .text_neuro, .white .text_city, .white .text_desc, .white .round_start, .white .round_center, .white .round_end { fill: #FFFFFF; stop-color: #FFFFFF; }</style></defs></svg>