<svg width="32" height="32" viewBox="1 0 32 32" fill="none" xmlns="http://www.w3.org/2000/svg">
<path d="M10.8765 13.6511L10.4931 2.36204C10.5943 2.33529 10.6848 2.29784 10.7754 2.24433L13.5391 5.21374C13.4113 5.401 13.3315 5.63106 13.3315 5.88252C13.3315 6.53525 13.8533 7.05958 14.503 7.05958C14.7213 7.05958 14.9237 7.00073 15.0994 6.89372L18.891 10.9706C18.678 11.2488 18.5448 11.602 18.5448 11.9818C18.5448 12.0781 18.5555 12.1744 18.5715 12.2654L12.1173 14.5125C11.867 14.047 11.4091 13.7153 10.8765 13.6511ZM21.5323 11.0027L25.0203 9.25319C24.999 9.16759 24.9883 9.07664 24.9883 8.98033C24.9883 8.63256 25.1428 8.3169 25.3824 8.10289L22.8636 3.43745C22.6133 3.5284 22.3417 3.5819 22.0595 3.5819C22.0222 3.5819 21.9849 3.5819 21.9423 3.57655L20.7388 10.4142C21.0637 10.5266 21.3353 10.7352 21.5323 11.0027ZM21.8465 11.9765C21.8465 12.4794 21.6228 12.9342 21.266 13.2392L24.7434 19.0014C24.8872 18.9425 25.0469 18.9051 25.2067 18.889L25.8138 10.1092C25.5954 10.0397 25.3984 9.91128 25.2546 9.73472L21.7666 11.4843C21.8198 11.6394 21.8465 11.8053 21.8465 11.9765ZM15.6692 5.87717C15.6692 6.11258 15.6 6.33195 15.4775 6.51921L19.2744 10.5961C19.5353 10.4196 19.8548 10.3179 20.1903 10.3179C20.1957 10.3179 20.2063 10.3179 20.2116 10.3179L21.4151 3.4856C20.9678 3.35719 20.5684 3.10038 20.2755 2.75261L15.6106 5.52406C15.6479 5.63641 15.6692 5.75412 15.6692 5.87717ZM7.93702 21.9387C8.34174 21.2271 9.10324 20.7509 9.97125 20.7509C10.4878 20.7509 10.9671 20.9221 11.3558 21.2057L18.8963 12.9984C18.8377 12.9235 18.7898 12.8486 18.7419 12.7683L12.2877 15.0154C12.3037 15.1064 12.3143 15.2027 12.3143 15.299C12.3143 16.2139 11.5741 16.9576 10.6635 16.9576C10.0778 16.9576 9.56653 16.6526 9.27364 16.1925L2.39347 19.1619C2.40412 19.2315 2.40945 19.2957 2.40945 19.3706C2.40945 19.4401 2.40412 19.5097 2.39347 19.5739L7.93702 21.9387ZM25.3611 22.1955C24.4505 22.1955 23.7103 21.4518 23.7103 20.5369C23.7103 20.034 23.9339 19.5792 24.2907 19.2743L20.8134 13.512C20.6217 13.5869 20.414 13.6297 20.1957 13.6297C20.169 13.6297 20.1424 13.6297 20.1158 13.6297L18.0816 23.2121C18.4596 23.394 18.7312 23.7685 18.7525 24.2126L26.4155 25.5822C26.5593 25.09 26.8628 24.6673 27.2622 24.3677L25.9469 22.0885C25.7658 22.1581 25.5688 22.1955 25.3611 22.1955ZM17.565 23.1051L19.5992 13.5227C19.4874 13.4799 19.3862 13.4264 19.2904 13.3622L11.7499 21.5695C12.1067 21.9815 12.3197 22.5165 12.3197 23.1051C12.3197 23.1372 12.3197 23.1639 12.3197 23.196L16.5053 23.8434C16.6704 23.4154 17.0804 23.1158 17.565 23.1051ZM25.851 7.84608C25.9522 7.81932 26.0534 7.80327 26.1599 7.80327C26.8096 7.80327 27.3314 8.3276 27.3314 8.98033C27.3314 9.02313 27.3314 9.06594 27.3261 9.10874L30.484 10.2323C30.681 9.89523 30.9899 9.63306 31.3626 9.49931C29.9461 6.19819 27.4592 3.4749 24.3387 1.76816C24.2002 2.36204 23.8328 2.86497 23.3375 3.19134L25.851 7.84608ZM10.8659 25.2826C10.589 25.395 10.2908 25.4592 9.97125 25.4592C8.67723 25.4592 7.62816 24.4052 7.62816 23.1051C7.62816 22.8696 7.66011 22.6449 7.72402 22.4309L2.18047 20.0554C2.01538 20.2801 1.78108 20.4406 1.50417 20.5048C3.00588 25.4431 6.82405 29.3702 11.686 31.0021C11.7392 30.4831 12.0321 30.039 12.4528 29.7769L10.8659 25.2826ZM26.3196 26.2617C26.3196 26.2136 26.3197 26.1654 26.325 26.1173L18.662 24.7476C18.4809 25.1649 18.0656 25.4592 17.5863 25.4592C16.9686 25.4592 16.4627 24.9777 16.4201 24.3731L12.2345 23.7257C12.0907 24.2554 11.7712 24.7048 11.3398 25.0205L12.948 29.5735C13.0705 29.5468 13.1983 29.5307 13.3315 29.5307C14.2421 29.5307 14.9823 30.2744 14.9823 31.1893C14.9823 31.3766 14.9503 31.5585 14.8917 31.7244C15.4988 31.7939 16.1112 31.8314 16.7396 31.8314C20.6856 31.8314 24.2961 30.3868 27.0811 27.9952C26.6125 27.5618 26.3196 26.9466 26.3196 26.2617ZM32.3425 12.6667C32.204 12.7041 32.0602 12.7255 31.9111 12.7255C31.6768 12.7255 31.4532 12.6774 31.2508 12.5864L26.5167 19.3492C26.8202 19.6488 27.0119 20.0715 27.0119 20.5316C27.0119 21.0506 26.7776 21.5107 26.4102 21.8156L27.7255 24.1002C28.0131 23.9718 28.3273 23.9023 28.6627 23.9023C29.2272 23.9023 29.7491 24.1056 30.1538 24.4373C31.7407 21.9494 32.6566 18.996 32.6566 15.8233C32.6566 14.7479 32.5501 13.6886 32.3425 12.6667ZM2.18047 18.6643L9.06064 15.6949C9.02868 15.5665 9.01271 15.4328 9.01271 15.2937C9.01271 14.9405 9.12455 14.6142 9.31093 14.3467L4.64071 9.78822C4.23599 10.1199 3.71945 10.3232 3.15498 10.3232C2.70234 10.3232 2.27632 10.1948 1.91421 9.96478C1.20063 11.7839 0.81189 13.7581 0.81189 15.834C0.81189 16.6419 0.87047 17.4391 0.987624 18.2149C1.0675 18.1989 1.1527 18.1882 1.23791 18.1882C1.62665 18.1828 1.96746 18.3701 2.18047 18.6643ZM11.1588 1.87516L13.9279 4.84992C14.0983 4.75362 14.29 4.70011 14.4977 4.70011C14.8278 4.70011 15.1314 4.83922 15.3444 5.06393L19.9826 2.30854C19.8122 1.98217 19.7164 1.613 19.7164 1.22243C19.7164 0.842562 19.8069 0.478741 19.9667 0.163074C18.9229 -0.0509367 17.8419 -0.16864 16.7343 -0.16864C14.8172 -0.16864 12.98 0.173778 11.2759 0.79441C11.3292 0.928167 11.3558 1.07262 11.3558 1.22243C11.3558 1.46319 11.2813 1.6879 11.1588 1.87516ZM30.2603 11.0669C30.2603 10.9546 30.271 10.8422 30.2923 10.7352L27.1451 9.61167C26.9693 9.88988 26.6818 10.0825 26.3463 10.136L25.7392 18.9158C25.8564 18.9425 25.9735 18.9853 26.08 19.0389L30.8035 12.2922C30.468 11.9925 30.2603 11.5538 30.2603 11.0669ZM5.49808 7.96378C5.49808 8.50416 5.31702 9.00173 5.00816 9.403L9.67836 13.9614C9.87007 13.817 10.0937 13.7153 10.3387 13.6672L9.95527 2.37809C9.59848 2.30854 9.3056 2.07847 9.14051 1.76281C7.25006 2.79541 5.5886 4.20253 4.2573 5.88787C4.9975 6.28379 5.49808 7.06493 5.49808 7.96378Z" fill="url(#paint0_linear)"/>
<defs>
<linearGradient id="paint0_linear" x1="0.81189" y1="15.8287" x2="32.6566" y2="15.8287" gradientUnits="userSpaceOnUse">
<stop stop-color="#49B695"/>
<stop offset="0.5" stop-color="#4F8BC9"/>
<stop offset="1" stop-color="#EF3059"/>
</linearGradient>
</defs>
</svg>
